<?xml version="1.0" standalone="no"?>
<!DOCTYPE svg PUBLIC "-//W3C//DTD SVG 20010904//EN"
 "http://www.w3.org/TR/2001/REC-SVG-20010904/DTD/svg10.dtd">
<svg version="1.0" xmlns="http://www.w3.org/2000/svg"
 width="512.000000pt" height="512.000000pt" viewBox="0 0 512.000000 512.000000"
 preserveAspectRatio="xMidYMid meet">
<metadata>
Created by potrace 1.11, written by Peter Selinger 2001-2013
</metadata>
<g transform="translate(0.000000,512.000000) scale(0.100000,-0.100000)"
fill="#000000" stroke="none">
<path d="M825 3038 c-462 -1261 -464 -1266 -522 -1324 -30 -31 -84 -54 -125
-54 -15 0 -18 -9 -18 -50 l0 -50 290 0 290 0 0 64 c0 36 -5 66 -10 68 -6 2
-57 0 -113 -4 -56 -3 -105 -4 -109 -2 -4 3 2 28 13 57 12 29 51 146 89 260 37
115 71 212 76 216 5 5 187 12 404 16 l395 7 29 -79 c117 -323 129 -384 81
-441 -26 -32 -58 -47 -117 -57 -38 -6 -38 -6 -38 -56 l0 -49 353 2 352 3 0 60
0 60 -102 -1 c-113 0 -113 0 -113 74 0 68 -28 144 -392 1072 -148 379 -197
505 -291 745 l-74 190 -40 3 -39 3 -269 -733z m435 -196 c94 -255 169 -470
166 -478 -4 -12 -58 -14 -338 -14 -183 0 -338 4 -345 8 -8 5 23 103 101 327
146 417 229 635 238 627 3 -4 84 -215 178 -470z"/>
<path d="M2006 3712 c-14 -3 -16 -14 -14 -65 l3 -62 84 -5 83 -5 25 -85 c50
-174 641 -1930 655 -1947 6 -7 27 -13 48 -13 43 0 35 -14 113 220 76 230 445
1354 452 1378 11 36 27 21 51 -49 12 -35 41 -118 64 -184 52 -149 103 -296
140 -400 16 -44 76 -217 135 -385 101 -288 143 -409 185 -525 17 -49 19 -50
62 -53 l45 -3 21 53 c41 103 136 381 337 978 253 755 257 766 300 855 56 116
115 164 240 191 39 9 40 10 43 57 l3 47 -316 0 -316 0 3 -62 3 -63 118 0 c64
0 117 -2 117 -6 0 -3 -15 -39 -34 -80 -19 -41 -62 -162 -96 -269 -34 -107
-138 -422 -230 -700 -149 -446 -190 -554 -190 -495 0 15 -81 262 -402 1228
l-152 457 -48 0 -47 0 -26 -87 c-15 -49 -85 -263 -155 -478 -103 -314 -220
-676 -341 -1062 -6 -18 -14 -33 -18 -33 -4 0 -20 35 -34 78 -14 42 -42 122
-62 177 -20 55 -67 192 -105 305 -38 113 -93 277 -124 365 -84 246 -109 346
-110 451 -1 65 3 96 13 108 22 26 80 53 135 60 73 11 76 13 76 62 l0 44 -358
2 c-197 2 -366 2 -376 0z"/>
</g>
</svg>
